<svg width="251" height="188" viewBox="0 0 251 188" fill="none" xmlns="http://www.w3.org/2000/svg">
<path d="M251 164.355H0V164.48H251V164.355Z" fill="#EBEBEB"/>
<path d="M225.85 172.432H209.224V172.557H225.85V172.432Z" fill="#EBEBEB"/>
<path d="M166.272 173.797H161.91V173.923H166.272V173.797Z" fill="#EBEBEB"/>
<path d="M208.722 167.773H199.088V167.899H208.722V167.773Z" fill="#EBEBEB"/>
<path d="M48.0163 168.617H26.335V168.742H48.0163V168.617Z" fill="#EBEBEB"/>
<path d="M55.6667 168.617H52.489V168.742H55.6667V168.617Z" fill="#EBEBEB"/>
<path d="M113.025 170.735H65.998V170.861H113.025V170.735Z" fill="#EBEBEB"/>
<path d="M118.974 141.966H22.0428C21.2834 141.964 20.5556 141.662 20.0192 141.124C19.4827 140.587 19.1814 139.859 19.1814 139.099V2.84132C19.188 2.08632 19.4922 1.36443 20.028 0.832426C20.5638 0.300426 21.2878 0.00129335 22.0428 0H118.974C119.734 0 120.463 0.301997 121.001 0.839555C121.538 1.37711 121.84 2.1062 121.84 2.86642V139.099C121.84 139.859 121.538 140.588 121.001 141.126C120.463 141.664 119.734 141.966 118.974 141.966ZM22.0428 0.1004C21.3167 0.10173 20.6209 0.391091 20.1079 0.904969C19.595 1.41885 19.3069 2.11525 19.3069 2.84132V139.099C19.3069 139.825 19.595 140.522 20.1079 141.036C20.6209 141.549 21.3167 141.839 22.0428 141.84H118.974C119.701 141.839 120.397 141.55 120.911 141.036C121.424 140.522 121.714 139.826 121.715 139.099V2.84132C121.714 2.11479 121.424 1.4184 120.911 0.904662C120.397 0.390928 119.701 0.101727 118.974 0.1004H22.0428Z" fill="#EBEBEB"/>
<path d="M227.562 141.966H130.625C129.866 141.964 129.137 141.662 128.6 141.125C128.063 140.587 127.76 139.859 127.759 139.099V2.84132C127.767 2.08587 128.072 1.36397 128.609 0.832112C129.145 0.300251 129.87 0.00127924 130.625 0H227.562C228.316 0.00261266 229.039 0.302329 229.573 0.834187C230.108 1.36605 230.411 2.08719 230.418 2.84132V139.099C230.418 139.858 230.117 140.585 229.582 141.122C229.047 141.66 228.32 141.963 227.562 141.966ZM130.625 0.1004C129.899 0.101727 129.203 0.390928 128.689 0.904662C128.175 1.4184 127.886 2.11479 127.885 2.84132V139.099C127.886 139.826 128.175 140.522 128.689 141.036C129.203 141.55 129.899 141.839 130.625 141.84H227.562C228.288 141.839 228.985 141.55 229.498 141.036C230.012 140.522 230.301 139.826 230.303 139.099V2.84132C230.301 2.11479 230.012 1.4184 229.498 0.904662C228.985 0.390928 228.288 0.101727 227.562 0.1004H130.625Z" fill="#EBEBEB"/>
<path d="M112.995 29.6231L118.181 28.8651L112.995 28.1071L114.275 26.079L112.247 27.3591L111.489 22.1785L110.731 27.3591L108.703 26.079L109.988 28.1071L104.802 28.8651L109.988 29.6231L108.703 31.6512L110.731 30.3661L111.489 35.5517L112.247 30.3661L114.275 31.6512L112.995 29.6231Z" fill="#F5F5F5"/>
<path d="M165.123 43.4631L170.303 42.7051L165.123 41.9471L166.403 39.919L164.375 41.1991L163.617 36.0134L162.859 41.1991L160.831 39.919L162.116 41.9471L156.93 42.7051L162.116 43.4631L160.831 45.4912L162.859 44.2061L163.617 49.3917L164.375 44.2061L166.403 45.4912L165.123 43.4631Z" fill="#F5F5F5"/>
<path d="M92.2174 65.9529L97.4031 65.1948L92.2174 64.4318L93.5025 62.4087L91.4744 63.6888L90.7164 58.5032L89.9584 63.6888L87.9303 62.4087L89.2154 64.4318L84.0298 65.1948L89.2154 65.9529L87.9303 67.9809L89.9584 66.6958L90.7164 71.8815L91.4744 66.6958L93.5025 67.9809L92.2174 65.9529Z" fill="#F5F5F5"/>
<path d="M48.3877 65.9529L53.5683 65.1948L48.3877 64.4318L49.6678 62.4087L47.6397 63.6888L46.8817 58.5032L46.1237 63.6888L44.0956 62.4087L45.3807 64.4318L40.1951 65.1948L45.3807 65.9529L44.0956 67.9809L46.1237 66.6958L46.8817 71.8815L47.6397 66.6958L49.6678 67.9809L48.3877 65.9529Z" fill="#F5F5F5"/>
<path d="M73.2168 96.8208L78.4025 96.0628L73.2168 95.2997L74.5019 93.2767L72.4738 94.5568L71.7158 89.3711L70.9528 94.5568L68.9297 93.2767L70.2098 95.2997L65.0242 96.0628L70.2098 96.8208L68.9297 98.8489L70.9528 97.5637L71.7158 102.749L72.4738 97.5637L74.5019 98.8489L73.2168 96.8208Z" fill="#F5F5F5"/>
<path d="M175.078 80.1995L180.263 79.4415L175.078 78.6835L176.363 76.6554L174.335 77.9405L173.577 72.7549L172.819 77.9405L170.79 76.6554L172.071 78.6835L166.89 79.4415L172.071 80.1995L170.79 82.2276L172.819 80.9475L173.577 86.1332L174.335 80.9475L176.363 82.2276L175.078 80.1995Z" fill="#F5F5F5"/>
<path d="M211.653 126.148L216.834 125.385L211.653 124.627L212.933 122.604L210.905 123.884L210.147 118.698L209.389 123.884L207.361 122.604L208.646 124.627L203.461 125.385L208.646 126.148L207.361 128.171L209.389 126.891L210.147 132.076L210.905 126.891L212.933 128.171L211.653 126.148Z" fill="#F5F5F5"/>
<path d="M168.391 124.551L173.577 123.793L168.391 123.03L169.676 121.007L167.648 122.287L166.89 117.102L166.127 122.287L164.104 121.007L165.384 123.03L160.198 123.793L165.384 124.551L164.104 126.579L166.127 125.294L166.89 130.48L167.648 125.294L169.676 126.579L168.391 124.551Z" fill="#F5F5F5"/>
<path d="M73.2168 135.354L78.4025 134.591L73.2168 133.833L74.5019 131.805L72.4738 133.09L71.7158 127.905L70.9528 133.09L68.9297 131.805L70.2098 133.833L65.0242 134.591L70.2098 135.354L68.9297 137.377L70.9528 136.097L71.7158 141.283L72.4738 136.097L74.5019 137.377L73.2168 135.354Z" fill="#F5F5F5"/>
<path d="M129.561 111.785L134.747 111.027L129.561 110.269L130.846 108.241L128.818 109.521L128.06 104.341L127.302 109.521L125.274 108.241L126.554 110.269L121.369 111.027L126.554 111.785L125.274 113.814L127.302 112.528L128.06 117.714L128.818 112.528L130.846 113.814L129.561 111.785Z" fill="#F5F5F5"/>
<path d="M100.144 167.623L105.33 166.865L100.144 166.107L101.424 164.079L99.3961 165.359L98.6381 160.178L97.88 165.359L95.852 164.079L97.1371 166.107L91.9514 166.865L97.1371 167.623L95.852 169.651L97.88 168.366L98.6381 173.552L99.3961 168.366L101.424 169.651L100.144 167.623Z" fill="#F5F5F5"/>
<path d="M157.829 164.239L163.014 163.481L157.829 162.723L159.109 160.695L157.086 161.98L156.323 156.795L155.565 161.98L153.537 160.695L154.822 162.723L149.636 163.481L154.822 164.239L153.537 166.267L155.565 164.982L156.323 170.168L157.086 164.982L159.109 166.267L157.829 164.239Z" fill="#F5F5F5"/>
<path d="M158.481 70.6364C155.399 66.0733 154.079 58.9147 151.253 56.0784C153.441 54.3988 155.763 52.9012 158.195 51.6006C159.927 56.5854 160.956 64.3213 165.424 66.1586C163.236 67.8382 160.914 69.3359 158.481 70.6364Z" fill="#EBEBEB"/>
<path d="M163.702 67.012C163.27 66.7258 163.381 66.1636 163.908 65.8122C160.816 63.3273 159.706 57.5442 158.306 53.217C158.192 53.2687 158.068 53.2954 157.942 53.295C157.817 53.2947 157.693 53.2674 157.58 53.215C157.466 53.1626 157.365 53.0864 157.283 52.9915C157.201 52.8965 157.141 52.7851 157.106 52.6648C155.638 53.4781 154.214 54.3679 152.839 55.3304C152.946 55.5836 152.953 55.8677 152.86 56.1262C152.767 56.3848 152.581 56.5989 152.337 56.726C154.43 59.6828 155.705 65.1395 157.994 69.2157C158.252 69.1201 158.533 69.1111 158.796 69.1899C159.058 69.2687 159.288 69.4311 159.45 69.6525C160.913 68.8473 162.332 67.9659 163.702 67.012ZM156.172 61.9468C155.715 60.7269 156.137 59.4016 157.071 58.9699C158.005 58.5382 159.079 59.2561 159.505 60.506C159.932 61.756 159.601 63.0512 158.672 63.4628C157.743 63.8745 156.624 63.1767 156.187 61.9468H156.172Z" fill="#E0E0E0"/>
<path d="M88.3771 55.6618C83.9645 58.0413 77.2728 58.3375 74.4817 60.7069C73.0814 58.3329 71.8598 55.8579 70.8271 53.3024C75.5409 52.2984 82.7446 52.3687 84.7225 48.2573C86.1268 50.6292 87.3485 53.1045 88.3771 55.6618Z" fill="#EBEBEB"/>
<path d="M85.3953 50.0545C85.1042 50.441 84.5871 50.2552 84.301 49.688C81.791 52.3636 76.3945 52.6498 72.3032 53.4179C72.3475 53.5277 72.3672 53.646 72.3607 53.7644C72.3543 53.8827 72.3219 53.9982 72.2658 54.1026C72.2098 54.207 72.1315 54.2979 72.0364 54.3686C71.9414 54.4394 71.8319 54.4884 71.7158 54.5122C72.3132 55.9379 73.021 57.4389 73.8845 59.0302C74.271 58.8344 74.8383 59.1406 75.1395 59.7129C78.0059 58.0814 83.1213 57.5895 87.0419 55.9178C86.9648 55.6674 86.9722 55.3986 87.0629 55.1527C87.1536 54.9069 87.3226 54.6977 87.5439 54.5574C86.9515 53.1367 86.2537 51.6408 85.4003 50.0394L85.3953 50.0545ZM80.2147 56.726C79.6861 56.8687 79.1238 56.8164 78.6306 56.5786C78.1375 56.3408 77.7464 55.9333 77.529 55.4309C77.1926 54.4269 77.9306 53.5183 79.1103 53.2673C80.29 53.0163 81.4647 53.5233 81.7809 54.4871C82.0972 55.4509 81.3743 56.4349 80.2147 56.726Z" fill="#E0E0E0"/>
<path d="M132.172 48.9852C128.422 45.6469 125.851 39.4472 122.669 37.6551C124.419 35.525 126.327 33.5298 128.376 31.6863C130.932 35.7726 133.336 42.5646 137.874 43.0114C136.126 45.1428 134.22 47.1397 132.172 48.9852Z" fill="#EBEBEB"/>
<path d="M136.413 44.2562C135.957 44.1157 135.952 43.5685 136.388 43.1066C133.03 41.6659 130.896 36.6911 128.773 33.1319C128.685 33.212 128.58 33.2716 128.467 33.3064C128.353 33.3411 128.233 33.3502 128.115 33.3329C127.998 33.3156 127.885 33.2724 127.786 33.2064C127.687 33.1404 127.604 33.0532 127.543 32.9512C126.409 34.0054 125.239 35.1801 124.029 36.5455C124.345 36.8417 124.25 37.4792 123.813 37.9561C126.323 40.0946 128.542 44.7331 131.459 47.8405C131.668 47.6829 131.922 47.5976 132.184 47.5976C132.446 47.5976 132.7 47.6829 132.909 47.8405C134.039 46.7963 135.204 45.6267 136.423 44.2763L136.413 44.2562ZM128.381 41.6659C128.066 41.218 127.923 40.6713 127.978 40.1262C128.033 39.5811 128.283 39.0744 128.683 38.6991C129.486 38.0515 130.61 38.423 131.258 39.4471C131.905 40.4711 131.82 41.7462 131.022 42.3737C130.224 43.0012 129.049 42.6699 128.396 41.6659H128.381Z" fill="#E0E0E0"/>
<path d="M143.938 101.339C142.227 96.6249 142.909 89.9634 140.977 86.856C143.529 85.8217 146.155 84.9794 148.833 84.3359C149.139 89.1451 148.015 96.2635 151.795 98.8237C149.243 99.858 146.617 100.699 143.938 101.339Z" fill="#EBEBEB"/>
<path d="M149.917 99.2054C149.581 98.859 149.842 98.3821 150.419 98.2014C148.14 95.3299 148.647 89.9435 148.487 85.7869C148.371 85.816 148.25 85.819 148.133 85.7958C148.016 85.7726 147.905 85.7237 147.809 85.6527C147.713 85.5816 147.634 85.4902 147.577 85.3849C147.521 85.2797 147.489 85.1632 147.483 85.0439C145.977 85.4305 144.395 85.9074 142.678 86.5248C142.814 86.9365 142.427 87.4535 141.815 87.6644C143.01 90.7416 142.749 95.8771 143.823 99.9935C144.082 99.9572 144.345 100.005 144.575 100.13C144.804 100.254 144.988 100.449 145.098 100.686C146.604 100.305 148.175 99.8329 149.887 99.2204L149.917 99.2054ZM144.104 93.1111C144.038 92.5675 144.17 92.0183 144.478 91.5651C144.785 91.1119 145.246 90.7855 145.776 90.6463C146.78 90.4555 147.603 91.3189 147.683 92.5237C147.764 93.7285 147.086 94.8129 146.087 94.9886C145.088 95.1643 144.194 94.3008 144.104 93.1111Z" fill="#E0E0E0"/>
<path d="M210.619 82.1322C206.869 78.7939 204.299 72.5942 201.116 70.802C202.868 68.6732 204.775 66.678 206.824 64.8333C209.384 68.9195 211.789 75.7116 216.327 76.1584C214.577 78.2899 212.669 80.2868 210.619 82.1322Z" fill="#EBEBEB"/>
<path d="M214.856 77.4084C214.394 77.2628 214.394 76.7156 214.831 76.2538C211.463 74.798 209.334 69.8382 207.221 66.264C207.133 66.3441 207.028 66.4037 206.914 66.4384C206.801 66.4732 206.681 66.4823 206.563 66.465C206.445 66.4477 206.333 66.4045 206.234 66.3384C206.135 66.2724 206.052 66.1853 205.991 66.0833C204.856 67.1375 203.687 68.3121 202.477 69.6776C202.793 69.9738 202.698 70.6113 202.261 71.0882C204.771 73.2267 206.99 77.8652 209.906 80.9726C210.116 80.8157 210.37 80.731 210.632 80.731C210.893 80.731 211.148 80.8157 211.357 80.9726C212.487 79.9284 213.651 78.7587 214.871 77.4084H214.856ZM206.824 74.798C206.508 74.3513 206.364 73.8051 206.419 73.2606C206.475 72.7161 206.726 72.2101 207.125 71.8362C207.923 71.1836 209.053 71.5551 209.695 72.5791C210.338 73.6032 210.263 74.8783 209.465 75.5058C208.666 76.1333 207.497 75.802 206.824 74.798Z" fill="#E0E0E0"/>
<path d="M207.647 74.4816L207.431 74.6473L207.306 74.4515L207.517 74.2859C207.385 74.0685 207.309 73.8218 207.296 73.568L207.557 73.5228C207.564 73.7338 207.621 73.9402 207.723 74.1252L208.099 73.8341C207.984 73.5228 207.868 73.1764 208.134 72.9706C208.325 72.82 208.611 72.8752 208.877 73.2367L209.093 73.071L209.219 73.2718L209.008 73.4325C209.112 73.6136 209.18 73.813 209.209 74.0198L208.952 74.065C208.927 73.9007 208.877 73.7415 208.802 73.5931L208.42 73.8893C208.541 74.2005 208.666 74.5469 208.42 74.7477C208.174 74.9485 207.918 74.8431 207.647 74.4816ZM208.33 73.6533L208.671 73.3973C208.541 73.2367 208.425 73.2166 208.34 73.2819C208.255 73.3471 208.275 73.4877 208.33 73.6533ZM208.179 74.4465C208.275 74.3762 208.25 74.2357 208.179 74.065L207.843 74.326C207.989 74.4867 208.099 74.5118 208.179 74.4465Z" fill="#E0E0E0"/>
<path d="M121.695 72.2329C118.326 76.5752 115.249 81.2237 113.889 86.1885C111.62 85.2497 109.29 84.306 107.016 83.2066C108.798 78.041 111.876 73.5079 114.822 69.251C117.091 70.1897 119.421 71.1335 121.695 72.2329Z" fill="#EBEBEB"/>
<path d="M115.877 70.1144C115.708 70.3416 115.47 70.508 115.198 70.5885C114.927 70.669 114.636 70.6595 114.371 70.5612C111.941 74.1103 109.511 77.8552 107.875 82.0068C108.122 82.1394 108.314 82.3557 108.416 82.617C108.518 82.8782 108.524 83.1674 108.432 83.4325C109.853 84.0851 111.288 84.6925 112.709 85.2848C112.745 85.1612 112.806 85.0467 112.89 84.949C112.973 84.8513 113.077 84.7726 113.194 84.7184C113.31 84.6641 113.437 84.6355 113.566 84.6345C113.694 84.6335 113.821 84.6601 113.939 84.7126C115.319 80.6715 117.744 76.8563 120.435 73.2469C120.318 73.195 120.214 73.1164 120.133 73.0173C120.052 72.9183 119.995 72.8015 119.967 72.6765C119.94 72.5515 119.941 72.4217 119.973 72.2976C120.004 72.1734 120.065 72.0584 120.149 71.9618C118.723 71.3092 117.292 70.7017 115.872 70.1094L115.877 70.1144ZM115.46 78.3121C115.192 78.8062 114.752 79.1847 114.224 79.3754C113.695 79.5661 113.115 79.5557 112.594 79.3462C112.351 79.2297 112.135 79.0632 111.961 78.8576C111.787 78.6521 111.658 78.412 111.583 78.1533C111.508 77.8945 111.489 77.6229 111.527 77.3561C111.564 77.0893 111.657 76.8335 111.8 76.6053C112.087 76.1115 112.543 75.738 113.084 75.5535C113.624 75.369 114.213 75.386 114.742 75.6013C114.984 75.7145 115.199 75.8796 115.37 76.0848C115.542 76.29 115.666 76.5303 115.735 76.7888C115.803 77.0474 115.814 77.3178 115.767 77.581C115.719 77.8442 115.614 78.0937 115.46 78.3121Z" fill="#E0E0E0"/>
<path d="M114.692 77.7296L114.963 77.8551L114.848 78.0559L114.577 77.9304C114.445 78.1444 114.258 78.3181 114.034 78.4324L113.849 78.2065C114.036 78.1131 114.197 77.9731 114.315 77.7999L113.813 77.574C113.593 77.8149 113.337 78.076 113 77.9153C112.754 77.7999 112.639 77.5137 112.825 77.1121L112.553 76.9866L112.669 76.7858L112.94 76.9113C113.052 76.7365 113.203 76.5903 113.382 76.4846L113.568 76.6955C113.425 76.7834 113.301 76.8976 113.201 77.0318L113.703 77.2577C113.929 77.0167 114.205 76.7557 114.531 76.9163C114.777 77.0418 114.883 77.3079 114.692 77.7296ZM113.537 77.4485L113.106 77.2477C113.03 77.4334 113.076 77.5489 113.181 77.5991C113.286 77.6493 113.412 77.574 113.537 77.4485ZM114.366 77.2527C114.245 77.1975 114.125 77.2778 113.999 77.4083L114.431 77.6041C114.506 77.4133 114.456 77.3079 114.366 77.2527Z" fill="#E0E0E0"/>
<path d="M207.291 97.9753C203.917 102.318 200.845 106.966 199.485 111.931C197.216 110.992 194.886 110.048 192.612 108.949C194.395 103.783 197.472 99.2504 200.414 94.9934C202.688 95.9321 205.017 96.8859 207.291 97.9753Z" fill="#EBEBEB"/>
<path d="M201.473 95.8518C201.305 96.0806 201.067 96.2484 200.795 96.3299C200.524 96.4114 200.233 96.4022 199.967 96.3036C197.537 99.8477 195.107 103.598 193.471 107.749C193.719 107.879 193.913 108.094 194.016 108.355C194.119 108.616 194.125 108.905 194.033 109.17C195.454 109.827 196.889 110.43 198.31 111.027C198.345 110.903 198.406 110.788 198.49 110.69C198.573 110.592 198.677 110.513 198.793 110.458C198.91 110.404 199.038 110.376 199.166 110.375C199.295 110.374 199.423 110.402 199.54 110.455C200.921 106.439 203.345 102.599 206.036 98.9893C205.919 98.9374 205.815 98.8588 205.734 98.7598C205.653 98.6607 205.596 98.544 205.569 98.419C205.541 98.2939 205.543 98.1641 205.574 98.04C205.606 97.9159 205.666 97.8008 205.75 97.7042C204.329 97.0566 202.898 96.4492 201.478 95.8568L201.473 95.8518ZM201.031 104.065C200.763 104.559 200.323 104.937 199.795 105.128C199.266 105.319 198.686 105.308 198.165 105.099C197.921 104.983 197.705 104.817 197.53 104.611C197.356 104.406 197.227 104.165 197.152 103.906C197.077 103.647 197.058 103.376 197.096 103.109C197.133 102.842 197.227 102.586 197.371 102.358C197.665 101.876 198.121 101.514 198.658 101.339C199.195 101.164 199.777 101.187 200.298 101.404C200.534 101.517 200.743 101.679 200.911 101.88C201.079 102.08 201.202 102.315 201.271 102.567C201.341 102.819 201.355 103.084 201.314 103.342C201.272 103.6 201.176 103.847 201.031 104.065Z" fill="#E0E0E0"/>
<path d="M200.298 103.472L200.569 103.598C200.529 103.663 200.489 103.728 200.454 103.798L200.182 103.673C200.047 103.885 199.858 104.058 199.635 104.175L199.455 103.949C199.641 103.854 199.802 103.714 199.921 103.542L199.419 103.317C199.199 103.557 198.943 103.819 198.606 103.658C198.36 103.542 198.245 103.256 198.431 102.855L198.159 102.729C198.195 102.659 198.235 102.594 198.275 102.528L198.546 102.654C198.658 102.478 198.809 102.33 198.988 102.222L199.168 102.438C199.029 102.527 198.906 102.641 198.807 102.774L199.309 103C199.535 102.759 199.811 102.498 200.137 102.659C200.373 102.784 200.474 103.066 200.298 103.472ZM199.143 103.191L198.712 102.99C198.636 103.176 198.682 103.291 198.787 103.342C198.892 103.392 199.008 103.317 199.133 103.191H199.143ZM199.972 102.995C199.851 102.94 199.731 103.02 199.605 103.146L200.032 103.347C200.102 103.156 200.067 103.04 199.962 102.995H199.972Z" fill="#E0E0E0"/>
<path d="M185.65 39.4874C185.384 34.0106 180.484 30.2406 180.218 24.7638L187.246 22.1785C187.517 27.6553 192.412 31.4253 192.683 36.8971L185.65 39.4874Z" fill="#EBEBEB"/>
<path d="M191.307 36.9724C191.278 36.6863 191.341 36.3984 191.486 36.1502C191.631 35.902 191.852 35.7065 192.115 35.5919C191.267 31.3299 187.873 28.0117 187.035 23.7497C186.919 23.801 186.791 23.8233 186.664 23.8147C186.537 23.806 186.414 23.7667 186.305 23.7001C186.197 23.6335 186.106 23.5415 186.041 23.4322C185.976 23.3228 185.938 23.1992 185.931 23.072L181.563 24.6834C181.593 24.9689 181.531 25.2565 181.387 25.5046C181.242 25.7527 181.023 25.9485 180.76 26.0639C181.598 30.3259 184.992 33.6492 185.84 37.9111C185.956 37.8598 186.083 37.8373 186.209 37.8456C186.336 37.854 186.458 37.8929 186.567 37.959C186.675 38.0252 186.765 38.1166 186.83 38.2254C186.895 38.3343 186.933 38.4573 186.94 38.5838L191.302 36.9724H191.307ZM184.555 31.4504C184.419 31.2256 184.335 30.9729 184.31 30.7112C184.285 30.4494 184.32 30.1855 184.411 29.9389C184.502 29.6923 184.648 29.4695 184.837 29.287C185.026 29.1046 185.254 28.9672 185.504 28.8852C186.05 28.7062 186.642 28.7202 187.179 28.9249C187.716 29.1296 188.167 29.5125 188.456 30.0097C188.593 30.2339 188.678 30.4864 188.704 30.7481C188.73 31.0098 188.696 31.274 188.605 31.5208C188.514 31.7676 188.369 31.9907 188.179 32.1732C187.99 32.3558 187.762 32.4931 187.512 32.5749C186.963 32.7534 186.369 32.7371 185.83 32.5286C185.291 32.3201 184.841 31.9322 184.555 31.4303V31.4504Z" fill="#E0E0E0"/>
<path d="M185.579 31.2896L185.288 31.395L185.178 31.1992L185.464 31.0888C185.35 30.8843 185.307 30.6475 185.343 30.4161H185.665C185.632 30.6068 185.658 30.803 185.74 30.9783L186.242 30.7876C186.162 30.4914 186.096 30.1651 186.453 30.0346C186.614 29.9889 186.785 29.9999 186.939 30.0657C187.092 30.1315 187.218 30.2481 187.296 30.396L187.587 30.2906L187.703 30.4914L187.412 30.5968C187.5 30.767 187.541 30.9575 187.532 31.149H187.246C187.254 30.9959 187.226 30.8431 187.166 30.7022L186.664 30.898C186.744 31.1942 186.819 31.5205 186.458 31.651C186.292 31.707 186.112 31.7013 185.951 31.6349C185.789 31.5684 185.657 31.4458 185.579 31.2896ZM186.583 30.6822L187.04 30.5115C186.915 30.3508 186.784 30.3107 186.669 30.3508C186.553 30.391 186.538 30.5265 186.573 30.6822H186.583ZM186.237 31.3548C186.362 31.3097 186.362 31.1791 186.327 31.0185L185.87 31.1842C185.986 31.3548 186.116 31.395 186.242 31.3548H186.237Z" fill="#E0E0E0"/>
<path d="M43.3878 104.356C43.1168 98.8941 38.2223 95.109 37.9512 89.6322L44.9792 87.0469C45.2503 92.5237 50.1448 96.2887 50.4158 101.766L43.3878 104.356Z" fill="#EBEBEB"/>
<path d="M49.0454 101.841C49.0159 101.555 49.0778 101.268 49.2221 101.02C49.3665 100.772 49.5858 100.576 49.8486 100.46C49.0053 96.1983 45.6118 92.8801 44.7684 88.6131C44.6523 88.6656 44.5251 88.6889 44.398 88.6811C44.2708 88.6732 44.1475 88.6345 44.0387 88.5682C43.9299 88.502 43.8389 88.4101 43.7736 88.3007C43.7083 88.1913 43.6707 88.0677 43.664 87.9404L39.2966 89.5519C39.3261 89.8374 39.2643 90.1249 39.1199 90.373C38.9756 90.6211 38.7562 90.8169 38.4934 90.9324C39.3368 95.1943 42.7303 98.5176 43.5736 102.78C43.6898 102.727 43.8169 102.704 43.9441 102.712C44.0712 102.719 44.1946 102.758 44.3034 102.824C44.4122 102.891 44.5032 102.983 44.5685 103.092C44.6338 103.201 44.6714 103.325 44.678 103.452L49.0454 101.841ZM42.2885 96.3188C42.1523 96.094 42.0685 95.8413 42.0435 95.5796C42.0184 95.3179 42.0528 95.0539 42.144 94.8073C42.2352 94.5607 42.3809 94.3379 42.5702 94.1555C42.7595 93.973 42.9875 93.8356 43.2373 93.7536C43.783 93.5759 44.3732 93.5906 44.9094 93.7952C45.4456 93.9998 45.8954 94.382 46.184 94.8781C46.3214 95.1023 46.4062 95.3548 46.432 95.6165C46.4579 95.8782 46.4241 96.1424 46.3333 96.3892C46.2425 96.636 46.097 96.8591 45.9077 97.0416C45.7184 97.2242 45.4902 97.3615 45.2403 97.4433C44.6917 97.6205 44.0987 97.6035 43.5612 97.3951C43.0237 97.1866 42.5742 96.7995 42.2885 96.2987V96.3188Z" fill="#E0E0E0"/>
<path d="M43.3125 96.1582L43.0213 96.2636L42.9109 96.0628L43.197 95.9574C43.0868 95.7516 43.0463 95.5155 43.0816 95.2847H43.4028C43.3673 95.4754 43.3937 95.6724 43.4781 95.847L43.9801 95.6562C43.8948 95.36 43.8295 95.0337 44.191 94.9032C44.3517 94.8565 44.5236 94.867 44.6774 94.933C44.8312 94.9989 44.9573 95.1161 45.0343 95.2646L45.3255 95.1592L45.4359 95.36L45.1498 95.4654C45.2403 95.6347 45.2803 95.8263 45.2653 96.0176H44.949C44.9567 95.8645 44.9292 95.7117 44.8687 95.5709L44.3667 95.7666C44.452 96.0578 44.5223 96.3891 44.1659 96.5196C44.0038 96.5679 43.83 96.5582 43.6742 96.4923C43.5185 96.4263 43.3906 96.3082 43.3125 96.1582ZM44.3165 95.5508L44.7783 95.3801C44.742 95.3156 44.6854 95.265 44.6173 95.2359C44.5493 95.2069 44.4735 95.2011 44.4018 95.2195C44.2713 95.2646 44.2713 95.3801 44.3064 95.5508H44.3165ZM43.9701 96.2235C44.1006 96.1783 44.1006 96.0478 44.0605 95.8821L43.6036 96.0528C43.7241 96.2235 43.8496 96.2636 43.9601 96.2235H43.9701Z" fill="#E0E0E0"/>
<path d="M61.3192 39.3768C59.4066 44.6578 52.7852 44.5524 50.6065 49.0302C48.5684 47.2381 46.5905 45.5162 44.6177 43.9801C46.5253 38.6991 53.1517 38.8045 55.3304 34.3267C57.3635 36.1439 59.3715 37.8256 61.3192 39.3768Z" fill="#EBEBEB"/>
<path d="M56.3042 35.667C56.0482 36.1389 55.4157 36.1339 54.9538 35.7222C52.5744 38.8246 47.7451 39.3366 45.5564 42.9611C45.77 43.1504 45.917 43.4034 45.9758 43.6827C46.0346 43.9621 46.0019 44.2529 45.8827 44.5122C47.1109 45.5162 48.3592 46.5771 49.6276 47.6949C49.8836 47.228 50.5162 47.228 50.973 47.6397C53.3525 44.5373 58.1817 44.0253 60.3754 40.4008C60.1616 40.2128 60.0142 39.9606 59.9554 39.682C59.8966 39.4033 59.9295 39.1131 60.0491 38.8547C58.8142 37.8507 57.5642 36.7898 56.2992 35.672L56.3042 35.667ZM54.5221 43.197C53.5583 43.699 52.0121 43.4179 51.0834 42.5595C50.1547 41.701 50.0794 40.5515 51.0834 40.0495C52.0874 39.5475 53.5934 39.8286 54.5271 40.692C55.4609 41.5554 55.4809 42.7 54.5221 43.207V43.197Z" fill="#E0E0E0"/>
<path d="M53.8947 42.3689C53.9851 42.4492 54.0704 42.5245 54.1508 42.6048L53.965 42.7052L53.709 42.4743C53.474 42.5775 53.2165 42.619 52.961 42.5948L52.8305 42.3287C53.0452 42.3535 53.2626 42.3241 53.463 42.2434L53.0062 41.8267C52.8414 41.8945 52.6616 41.9172 52.4852 41.8925C52.3087 41.8678 52.142 41.7965 52.0022 41.6861C51.9407 41.6464 51.8911 41.5907 51.8586 41.5251C51.8261 41.4595 51.8119 41.3863 51.8176 41.3133C51.8232 41.2403 51.8485 41.1701 51.8907 41.1103C51.9329 41.0505 51.9905 41.0031 52.0574 40.9733L51.7964 40.7374L51.9821 40.637L52.2381 40.8679C52.4293 40.784 52.637 40.7445 52.8456 40.7524L52.9811 41.0135C52.8104 41.0105 52.6404 41.0377 52.4791 41.0938L52.946 41.5205C53.1095 41.4482 53.2899 41.4226 53.4671 41.4466C53.6443 41.4705 53.8114 41.543 53.95 41.656C54.01 41.6968 54.0583 41.7527 54.0898 41.8181C54.1213 41.8835 54.1349 41.9561 54.1293 42.0285C54.1237 42.1009 54.099 42.1705 54.0578 42.2302C54.0167 42.29 53.9604 42.3378 53.8947 42.3689ZM52.71 41.5757L52.2984 41.1992C52.2714 41.2158 52.2491 41.2391 52.2337 41.2668C52.2182 41.2945 52.2101 41.3256 52.2101 41.3573C52.2101 41.389 52.2182 41.4202 52.2337 41.4479C52.2491 41.4756 52.2714 41.4988 52.2984 41.5155C52.3587 41.5543 52.4267 41.5798 52.4977 41.5902C52.5687 41.6006 52.6411 41.5957 52.71 41.5757ZM53.6638 41.8317C53.5998 41.7883 53.5266 41.7603 53.45 41.7499C53.3734 41.7394 53.2954 41.7468 53.2221 41.7715L53.6287 42.143C53.7893 42.0325 53.7843 41.9221 53.6839 41.8317H53.6638Z" fill="#E0E0E0"/>
<path d="M66.4647 114.065C64.5571 119.346 57.9307 119.24 55.752 123.718C53.744 121.926 51.736 120.204 49.7632 118.668C51.6758 113.387 58.2972 113.492 60.4759 109.014C62.514 110.807 64.517 112.513 66.4647 114.065Z" fill="#EBEBEB"/>
<path d="M61.4497 110.355C61.1937 110.822 60.5662 110.822 60.1044 110.41C57.7249 113.512 52.8956 114.024 50.7019 117.649C50.917 117.837 51.0655 118.09 51.1252 118.369C51.185 118.649 51.1527 118.94 51.0332 119.2C52.2631 120.204 53.5131 121.278 54.7781 122.383C55.0291 121.916 55.6617 121.916 56.1235 122.327C58.498 119.225 63.3322 118.708 65.5209 115.089C65.3071 114.901 65.1597 114.648 65.1009 114.37C65.0421 114.091 65.075 113.801 65.1946 113.542C63.9664 112.538 62.7181 111.478 61.4497 110.36V110.355ZM59.6676 117.885C58.7088 118.387 57.1576 118.106 56.2339 117.247C55.3103 116.389 55.2299 115.239 56.2339 114.737C57.2379 114.235 58.7439 114.516 59.6726 115.38C60.6013 116.243 60.6264 117.388 59.6676 117.895V117.885Z" fill="#E0E0E0"/>
<path d="M59.0451 117.056L59.3012 117.292C59.2359 117.322 59.1757 117.358 59.1154 117.393L58.8594 117.157C58.6233 117.263 58.364 117.306 58.1064 117.282C58.0662 117.192 58.0211 117.107 57.9809 117.016C58.1955 117.041 58.4129 117.011 58.6134 116.931L58.1516 116.514C57.9864 116.581 57.8063 116.603 57.6298 116.578C57.4534 116.552 57.2869 116.48 57.1476 116.369C57.0873 116.329 57.0389 116.273 57.0073 116.208C56.9756 116.143 56.9619 116.071 56.9675 115.999C56.9731 115.926 56.9979 115.857 57.0393 115.798C57.0806 115.738 57.1371 115.691 57.2028 115.661L56.9468 115.425L57.1325 115.324L57.3885 115.555C57.5783 115.472 57.7838 115.431 57.9909 115.435C58.0361 115.525 58.0863 115.611 58.1315 115.696C57.9604 115.694 57.7904 115.723 57.6295 115.781L58.0913 116.203C58.2561 116.135 58.4359 116.113 58.6124 116.137C58.7888 116.162 58.9555 116.233 59.0953 116.344C59.1556 116.384 59.2042 116.439 59.236 116.505C59.2679 116.57 59.2821 116.642 59.277 116.714C59.2719 116.787 59.2477 116.857 59.207 116.917C59.1663 116.977 59.1105 117.025 59.0451 117.056ZM57.8755 116.258L57.4689 115.887C57.3283 115.997 57.3434 116.108 57.4689 116.203C57.5289 116.24 57.5962 116.265 57.6663 116.274C57.7363 116.284 57.8076 116.278 57.8755 116.258ZM58.8293 116.519C58.7663 116.474 58.693 116.444 58.616 116.434C58.5389 116.423 58.4604 116.432 58.3875 116.459L58.7941 116.83C58.9347 116.72 58.9297 116.61 58.8293 116.519Z" fill="#E0E0E0"/>
<path d="M157.056 61.8464L156.805 61.9518C156.78 61.8715 156.749 61.7911 156.719 61.7058L156.965 61.6004C156.877 61.3406 156.852 61.0638 156.89 60.7922L157.161 60.8273C157.127 61.0505 157.143 61.2784 157.206 61.495L157.643 61.3042C157.588 60.9478 157.543 60.5562 157.854 60.4257C158.08 60.3253 158.356 60.4659 158.547 60.9277L158.793 60.8173L158.883 61.0632L158.637 61.1687C158.706 61.384 158.734 61.6107 158.717 61.8363L158.451 61.8062C158.462 61.627 158.443 61.4473 158.396 61.2741L157.954 61.4648C158.009 61.8213 158.065 62.2178 157.759 62.3484C157.533 62.4387 157.256 62.2982 157.056 61.8464ZM157.914 61.1938L158.306 61.0231C158.205 60.8223 158.095 60.762 157.999 60.8072C157.904 60.8524 157.889 61.003 157.914 61.1938ZM157.598 61.9668C157.708 61.9217 157.713 61.766 157.683 61.5703L157.297 61.7409C157.397 61.9468 157.508 62.007 157.598 61.9668Z" fill="#E0E0E0"/>
<path d="M80.1745 55.8375C80.2046 55.9178 80.2297 56.0082 80.2598 56.0935L80.0289 56.1437C79.9988 56.0584 79.9737 55.973 79.9486 55.8877C79.6982 55.9384 79.4391 55.9246 79.1956 55.8475C79.1956 55.7622 79.2307 55.6769 79.2458 55.5865C79.4459 55.6545 79.6593 55.6734 79.8683 55.6417C79.8181 55.4911 79.7679 55.3355 79.7227 55.1849C79.3863 55.1849 79.0249 55.1849 78.9195 54.8586C78.8492 54.6227 78.9948 54.3566 79.4215 54.2512C79.3964 54.1658 79.3663 54.0805 79.3412 53.9901L79.5721 53.9399C79.5721 54.0253 79.6273 54.1106 79.6524 54.196C79.8562 54.1555 80.066 54.1555 80.2699 54.196C80.2699 54.2813 80.2699 54.3666 80.2297 54.452C80.0635 54.4239 79.8939 54.4239 79.7277 54.452C79.7729 54.6076 79.8231 54.7582 79.8733 54.9138C80.2046 54.9138 80.5761 54.9138 80.6715 55.2251C80.7568 55.451 80.6062 55.722 80.1745 55.8375ZM79.6323 54.9088C79.5922 54.7733 79.547 54.6327 79.5068 54.5022C79.311 54.5674 79.2508 54.6678 79.2859 54.7682C79.3211 54.8686 79.4566 54.9038 79.6323 54.9088ZM80.3301 55.3204C80.295 55.205 80.1494 55.1849 79.9687 55.1799C80.0138 55.3154 80.054 55.451 80.0992 55.5865C80.3201 55.5162 80.3602 55.4158 80.3201 55.3204H80.3301Z" fill="#E0E0E0"/>
<path d="M129.2 41.3348L128.984 41.5005L128.858 41.3047L129.069 41.139C128.938 40.9216 128.862 40.675 128.848 40.4212L129.109 40.376C129.117 40.587 129.173 40.7934 129.275 40.9784L129.657 40.6872C129.536 40.376 129.421 40.0296 129.687 39.8238C129.953 39.618 130.189 39.7284 130.43 40.0898L130.646 39.9242L130.771 40.125L130.56 40.2856C130.664 40.4668 130.732 40.6662 130.761 40.873L130.505 40.9181C130.48 40.7539 130.429 40.5946 130.354 40.4463L129.973 40.7424C130.093 41.0537 130.219 41.4001 129.973 41.6009C129.727 41.8017 129.471 41.6962 129.2 41.3348ZM129.883 40.5065L130.224 40.2505C130.093 40.0898 129.978 40.0698 129.893 40.13C129.807 40.1902 129.827 40.3408 129.883 40.5065ZM129.737 41.2997C129.827 41.2294 129.802 41.0888 129.737 40.9181L129.401 41.1742C129.541 41.3398 129.652 41.3649 129.737 41.2997Z" fill="#E0E0E0"/>
<path d="M144.963 93.2013L144.697 93.2464C144.697 93.1661 144.697 93.0858 144.697 93.0105L144.963 92.9653C144.951 92.7107 145.003 92.4573 145.113 92.2274L145.364 92.3177C145.268 92.5041 145.218 92.7106 145.219 92.9201L145.696 92.8448C145.736 92.5135 145.801 92.1571 146.132 92.1019C146.373 92.0617 146.594 92.2424 146.659 92.6892L146.925 92.6491V92.885L146.664 92.9252C146.672 93.1339 146.637 93.3421 146.564 93.5376L146.313 93.4573C146.374 93.2968 146.406 93.1269 146.408 92.9553L145.931 93.0356C145.886 93.3669 145.836 93.7284 145.505 93.7836C145.259 93.8288 145.033 93.648 144.963 93.2013ZM145.967 92.7997L146.388 92.7294C146.348 92.5286 146.258 92.4583 146.152 92.4734C146.047 92.4884 145.992 92.624 145.962 92.7997H145.967ZM145.465 93.4272C145.58 93.4272 145.625 93.2715 145.655 93.0908L145.234 93.1561C145.264 93.3719 145.349 93.4422 145.45 93.4272H145.465Z" fill="#E0E0E0"/>
<path d="M125.5 187.025C179.255 187.025 222.833 184.481 222.833 181.343C222.833 178.204 179.255 175.66 125.5 175.66C71.7446 175.66 28.1672 178.204 28.1672 181.343C28.1672 184.481 71.7446 187.025 125.5 187.025Z" fill="#F5F5F5"/>
<path d="M86.3039 34.8437C81.4997 32.153 77.1022 26.3499 73.3171 25.0999C74.5137 22.6161 75.9158 20.2367 77.5088 17.9866C81.2939 21.6562 85.6914 28.1069 90.4956 27.7254C89.2959 30.2091 87.8939 32.5899 86.3039 34.8437Z" fill="#31B96D"/>
<path opacity="0.5" d="M86.3039 34.8437C81.4997 32.153 77.1022 26.3499 73.3171 25.0999C74.5137 22.6161 75.9158 20.2367 77.5088 17.9866C81.2939 21.6562 85.6914 28.1069 90.4956 27.7254C89.2959 30.2091 87.8939 32.5899 86.3039 34.8437Z" fill="white"/>
<path opacity="0.2" d="M89.3559 29.2614C88.8539 29.2012 88.6883 28.649 88.9995 28.0968C85.1241 27.2634 81.5298 22.5748 78.337 19.3569C78.2588 19.4552 78.1602 19.5353 78.0481 19.5917C77.9359 19.6482 77.8128 19.6796 77.6873 19.6839C77.5618 19.6882 77.4369 19.6653 77.3211 19.6166C77.2054 19.568 77.1015 19.4948 77.0168 19.4021C76.0719 20.7904 75.1989 22.2264 74.4014 23.7043C74.6105 23.8821 74.7451 24.132 74.7786 24.4044C74.812 24.6769 74.7419 24.952 74.5821 25.1751C77.7798 26.8819 81.3691 31.1991 85.2496 33.7945C85.4362 33.5904 85.685 33.4536 85.9574 33.4055C86.2297 33.3574 86.5103 33.4006 86.7556 33.5284C87.6979 32.1497 88.5691 30.7239 89.366 29.2564L89.3559 29.2614ZM80.3501 28.1118C79.3963 27.2233 79.1754 25.8528 79.8179 25.0496C80.4605 24.2464 81.7306 24.4071 82.6844 25.3257C83.6382 26.2444 83.9092 27.5546 83.2667 28.3377C82.6241 29.1208 81.3239 29.0104 80.3501 28.1118Z" fill="black"/>
<g opacity="0.2">
<path d="M81.0779 27.61L80.9072 27.8158L80.7165 27.6401C80.7767 27.5699 80.8319 27.4996 80.8922 27.4343C80.6957 27.2406 80.5478 27.0032 80.4604 26.7416L80.7215 26.6512C80.7883 26.8682 80.9033 27.0672 81.0578 27.2335L81.3641 26.862C81.1532 26.5709 80.9374 26.2396 81.1532 25.9835C81.3691 25.7275 81.6201 25.7978 81.9966 26.1141C82.0568 26.0488 82.112 25.9785 82.1723 25.9082L82.358 26.089L82.1873 26.2948C82.3453 26.4534 82.4714 26.6409 82.5588 26.847L82.3078 26.9474C82.2376 26.7807 82.141 26.6264 82.0217 26.4906L81.7104 26.862C81.9213 27.1532 82.1472 27.4845 81.9313 27.7405C81.7155 27.9966 81.4644 27.9413 81.0779 27.61ZM81.5799 26.6412L81.851 26.3149C81.6753 26.1793 81.5498 26.1793 81.4845 26.2596C81.4193 26.34 81.4494 26.5006 81.5548 26.6612L81.5799 26.6412ZM81.6502 27.4745C81.7255 27.3841 81.6502 27.2486 81.5448 27.0829L81.2737 27.4092C81.4343 27.5699 81.5548 27.5749 81.6251 27.4946L81.6502 27.4745Z" fill="black"/>
</g>
<path d="M127.508 56.0884C123.09 58.4679 116.404 58.7691 113.613 61.1335C112.212 58.756 110.994 56.2757 109.968 53.7139C114.682 52.7099 121.886 52.7752 123.863 48.6638C125.263 51.0435 126.481 53.5254 127.508 56.0884Z" fill="#31B96D"/>
<path opacity="0.5" d="M127.508 56.0884C123.09 58.4679 116.404 58.7691 113.613 61.1335C112.212 58.756 110.994 56.2757 109.968 53.7139C114.682 52.7099 121.886 52.7752 123.863 48.6638C125.263 51.0435 126.481 53.5254 127.508 56.0884Z" fill="white"/>
<path opacity="0.2" d="M124.531 50.4861C124.24 50.8676 123.728 50.6819 123.442 50.1196C120.932 52.7903 115.53 53.0814 111.444 53.8445C111.488 53.955 111.508 54.074 111.501 54.1929C111.494 54.3119 111.461 54.4279 111.405 54.5328C111.348 54.6376 111.27 54.7288 111.174 54.7999C111.078 54.8709 110.968 54.92 110.852 54.9438C111.454 56.3695 112.157 57.8655 113.02 59.4618C113.412 59.2661 113.979 59.5723 114.275 60.1496C117.147 58.5181 122.262 58.0261 126.178 56.3545C126.104 56.1031 126.112 55.8346 126.203 55.5887C126.293 55.3428 126.46 55.1325 126.68 54.989C126.082 53.5684 125.384 52.0774 124.531 50.471V50.4861ZM119.35 57.1276C118.823 57.2733 118.26 57.2223 117.767 56.984C117.273 56.7458 116.884 56.3365 116.67 55.8324C116.333 54.8585 117.066 53.9248 118.251 53.6688C119.436 53.4128 120.6 53.9298 120.917 54.8937C121.233 55.8575 120.515 56.8615 119.35 57.1276Z" fill="black"/>
<g opacity="0.2">
<path d="M119.315 56.2641C119.345 56.3495 119.371 56.4348 119.396 56.5201L119.165 56.5754C119.165 56.49 119.11 56.4047 119.084 56.3193C118.834 56.3669 118.575 56.3531 118.331 56.2792C118.331 56.1888 118.367 56.1035 118.387 56.0181C118.585 56.0866 118.797 56.1039 119.004 56.0683C118.959 55.9177 118.909 55.7671 118.859 55.6115C118.527 55.6115 118.161 55.6115 118.06 55.2852C117.985 55.0543 118.131 54.8083 118.562 54.6778C118.532 54.5925 118.507 54.5071 118.477 54.4218L118.713 54.3716C118.713 54.4569 118.763 54.5423 118.793 54.6276C118.997 54.585 119.207 54.585 119.411 54.6276L119.366 54.8836C119.199 54.8555 119.03 54.8555 118.864 54.8836C118.914 55.0342 118.964 55.1898 119.009 55.3455C119.345 55.3455 119.712 55.3455 119.812 55.6567C119.898 55.8776 119.747 56.1286 119.315 56.2641ZM118.773 55.3354C118.728 55.1999 118.688 55.0643 118.643 54.9288C118.452 54.9991 118.392 55.0995 118.422 55.1999C118.452 55.3003 118.597 55.3304 118.773 55.3354ZM119.466 55.7471C119.431 55.6366 119.29 55.6115 119.11 55.6115C119.15 55.7471 119.195 55.8826 119.235 56.0131C119.436 55.9428 119.476 55.8475 119.476 55.7471H119.466Z" fill="black"/>
</g>
<path d="M163.617 24.4574C158.406 26.2144 153.281 28.3881 149.4 31.7766C148.025 29.7384 146.609 27.6652 145.319 25.4915C149.661 22.1733 154.726 20.08 159.535 18.1724C160.911 20.2105 162.327 22.2837 163.617 24.4574Z" fill="#31B96D"/>
<path opacity="0.5" d="M163.617 24.4574C158.406 26.2144 153.281 28.3881 149.4 31.7766C148.025 29.7384 146.609 27.6652 145.319 25.4915C149.661 22.1733 154.726 20.08 159.535 18.1724C160.911 20.2105 162.327 22.2837 163.617 24.4574Z" fill="white"/>
<path opacity="0.2" d="M159.937 19.4724C159.671 19.5705 159.379 19.579 159.107 19.4965C158.836 19.4141 158.598 19.2453 158.431 19.0156C154.445 20.627 150.349 22.4091 146.694 24.9643C146.831 25.2117 146.874 25.4996 146.816 25.776C146.758 26.0523 146.602 26.2987 146.378 26.4703C147.201 27.8006 148.06 29.0958 148.918 30.3759C149.016 30.292 149.131 30.2303 149.254 30.1949C149.378 30.1595 149.508 30.1513 149.636 30.1708C149.763 30.1904 149.885 30.2372 149.992 30.3082C150.1 30.3791 150.19 30.4724 150.259 30.5817C153.642 27.9713 157.789 26.134 162.005 24.6129C161.936 24.5046 161.894 24.3816 161.881 24.2538C161.868 24.126 161.886 23.997 161.932 23.8772C161.979 23.7575 162.053 23.6504 162.148 23.5645C162.244 23.4786 162.358 23.4165 162.482 23.383C161.659 22.0577 160.795 20.7626 159.942 19.4825L159.937 19.4724ZM155.038 26.0737C154.541 26.338 153.965 26.4104 153.419 26.2771C152.873 26.1438 152.394 25.8141 152.076 25.3509C151.937 25.1198 151.849 24.8621 151.817 24.5946C151.786 24.3271 151.811 24.0559 151.892 23.7988C151.972 23.5418 152.106 23.3047 152.285 23.1033C152.464 22.9018 152.683 22.7405 152.929 22.63C153.444 22.3764 154.033 22.3185 154.587 22.4672C155.141 22.6159 155.623 22.961 155.941 23.4382C156.076 23.6663 156.159 23.9207 156.186 24.1842C156.213 24.4476 156.183 24.7137 156.097 24.9642C156.011 25.2147 155.872 25.4436 155.689 25.6351C155.506 25.8267 155.284 25.9763 155.038 26.0737Z" fill="black"/>
<g opacity="0.2">
<path d="M154.746 25.1702L154.902 25.4263L154.691 25.5267L154.536 25.2757C154.305 25.3829 154.05 25.4263 153.798 25.4012C153.798 25.3058 153.798 25.2054 153.773 25.11C153.98 25.1367 154.191 25.109 154.385 25.0297C154.295 24.8741 154.199 24.7235 154.104 24.5729C153.783 24.6532 153.431 24.7235 153.24 24.4072C153.095 24.1763 153.16 23.8751 153.537 23.6442L153.376 23.3831L153.587 23.2827L153.742 23.5337C153.932 23.4521 154.138 23.4144 154.345 23.4233C154.345 23.5136 154.37 23.609 154.385 23.7044C154.214 23.698 154.044 23.7236 153.883 23.7797L154.164 24.2415C154.485 24.1662 154.847 24.096 155.043 24.4122C155.193 24.6431 155.118 24.9343 154.746 25.1702ZM153.938 24.2968L153.687 23.8901C153.522 24.0056 153.496 24.1261 153.557 24.2265C153.617 24.3269 153.762 24.3319 153.938 24.2968ZM154.736 24.5879C154.666 24.4775 154.52 24.4825 154.345 24.5176L154.591 24.9192C154.761 24.8038 154.797 24.6883 154.736 24.598V24.5879Z" fill="black"/>
</g>
<path d="M71.8763 77.9756C68.0812 74.0199 61.9116 74.3914 58.1165 70.4456C59.3112 68.2636 60.5076 66.0799 61.7058 63.8945C65.5009 67.8503 71.6705 67.4838 75.4656 71.4245C74.2708 73.6099 73.0744 75.7936 71.8763 77.9756Z" fill="#31B96D"/>
<path opacity="0.5" d="M71.8763 77.9756C68.0812 74.0199 61.9116 74.3914 58.1165 70.4456C59.3112 68.2636 60.5076 66.0799 61.7058 63.8945C65.5009 67.8503 71.6705 67.4838 75.4656 71.4245C74.2708 73.6099 73.0744 75.7936 71.8763 77.9756Z" fill="white"/>
<path opacity="0.2" d="M74.4967 72.3682C74.2857 72.1725 74.1426 71.9146 74.0884 71.6319C74.0342 71.3493 74.0718 71.0567 74.1955 70.7969C70.7619 68.1363 66.023 67.8602 62.5893 65.1946C62.5355 65.3099 62.4544 65.4105 62.353 65.4874C62.2516 65.5643 62.1329 65.6154 62.0073 65.6362C61.8818 65.6569 61.753 65.6468 61.6322 65.6066C61.5115 65.5664 61.4023 65.4973 61.3142 65.4054L59.0803 69.4917C59.2895 69.6876 59.4309 69.9449 59.4842 70.2265C59.5374 70.508 59.4997 70.7992 59.3765 71.0579C62.8102 73.7236 67.5491 73.9997 70.9827 76.6653C71.036 76.5496 71.1168 76.4486 71.218 76.3711C71.3191 76.2937 71.4377 76.2421 71.5633 76.2208C71.6889 76.1995 71.8179 76.2092 71.9389 76.2491C72.0599 76.2889 72.1694 76.3577 72.2578 76.4494L74.4917 72.3682H74.4967ZM65.7619 72.6192C65.5118 72.5384 65.283 72.4023 65.0925 72.221C64.9021 72.0398 64.7549 71.818 64.6618 71.5721C64.5688 71.3262 64.5322 71.0625 64.555 70.8005C64.5777 70.5386 64.6591 70.2852 64.7931 70.059C65.089 69.5636 65.5466 69.1853 66.0888 68.9878C66.631 68.7903 67.2247 68.7856 67.7699 68.9746C68.0203 69.0536 68.2495 69.1882 68.4406 69.3682C68.6316 69.5483 68.7794 69.7692 68.8731 70.0144C68.9668 70.2596 69.0038 70.5229 68.9814 70.7844C68.959 71.0459 68.8778 71.2991 68.7438 71.5248C68.4492 72.0231 67.9914 72.4042 67.448 72.6037C66.9046 72.8031 66.3089 72.8086 65.7619 72.6192Z" fill="black"/>
<g opacity="0.2">
<path d="M66.4396 71.841C66.3945 71.9314 66.3442 72.0218 66.294 72.1121L66.0782 72.0318L66.2238 71.7657C66.0044 71.6831 65.8177 71.5317 65.6917 71.334L65.9427 71.1332C66.044 71.2973 66.1928 71.4269 66.3694 71.5047C66.4547 71.3441 66.5451 71.1834 66.6354 71.0027C66.3794 70.832 66.1334 70.6312 66.2991 70.2949C66.3897 70.1543 66.5266 70.0498 66.686 69.9994C66.8455 69.949 67.0176 69.9558 67.1725 70.0188L67.3232 69.7427L67.539 69.823L67.3884 70.0891C67.568 70.1584 67.7245 70.2766 67.8402 70.4304L67.5993 70.6312C67.5038 70.5132 67.3839 70.4173 67.2479 70.3501L66.9818 70.8521C67.2378 71.0228 67.4838 71.2236 67.3232 71.5599C67.2308 71.7014 67.0925 71.8067 66.9315 71.8579C66.7705 71.9092 66.5967 71.9032 66.4396 71.841ZM66.791 70.7316L67.027 70.2999C66.8262 70.2597 66.7007 70.2999 66.6454 70.4254C66.5902 70.5509 66.6655 70.6312 66.791 70.7316ZM66.9768 71.4645C67.042 71.3441 66.9768 71.2487 66.8212 71.1483L66.5852 71.575C66.791 71.6202 66.9165 71.5649 66.9768 71.4645Z" fill="black"/>
</g>
<path d="M196.046 57.8505C192.462 62.1777 186.287 59.8585 182.703 63.3173C181.393 60.9428 180.082 58.6587 178.772 56.5403C182.356 52.213 188.531 54.5323 192.115 51.0735C193.426 53.4479 194.736 55.722 196.046 57.8505Z" fill="#31B96D"/>
<path opacity="0.5" d="M196.046 57.8505C192.462 62.1777 186.287 59.8585 182.703 63.3173C181.393 60.9428 180.082 58.6587 178.772 56.5403C182.356 52.213 188.531 54.5323 192.115 51.0735C193.426 53.4479 194.736 55.722 196.046 57.8505Z" fill="white"/>
<path opacity="0.2" d="M192.577 52.6647C192.181 53.0211 191.573 52.8052 191.292 52.2581C188.004 54.3765 183.285 53.2269 180.002 55.8976C180.139 56.1481 180.192 56.4359 180.153 56.7187C180.114 57.0015 179.985 57.2644 179.786 57.4688C180.599 58.8393 181.418 60.265 182.236 61.7308C182.633 61.3744 183.24 61.5902 183.521 62.1324C186.804 60.014 191.523 61.1635 194.811 58.4979C194.673 58.2485 194.62 57.9612 194.659 57.6789C194.698 57.3966 194.827 57.1345 195.027 56.9317C194.209 55.5662 193.39 54.1355 192.577 52.6697V52.6647ZM188.355 59.1606C187.281 59.3061 185.941 58.528 185.343 57.3985C184.746 56.269 185.102 55.1697 186.172 55.0191C187.241 54.8685 188.591 55.6566 189.184 56.7861C189.776 57.9156 189.43 59.01 188.355 59.1606Z" fill="black"/>
<g opacity="0.2">
<path d="M188.049 58.1615L188.21 58.4677L188.004 58.4978L187.838 58.1916C187.581 58.213 187.323 58.1663 187.09 58.0561L187.06 57.7599C187.253 57.8562 187.467 57.9028 187.683 57.8955L187.397 57.3483C187.221 57.3538 187.047 57.3132 186.892 57.2304C186.737 57.1476 186.606 57.0255 186.513 56.8764C186.47 56.8183 186.443 56.7498 186.435 56.6778C186.427 56.6059 186.439 56.5332 186.469 56.4672C186.498 56.4012 186.545 56.3443 186.604 56.3024C186.663 56.2605 186.732 56.2351 186.804 56.2288L186.639 55.9176L186.849 55.8875L187.01 56.1937C187.218 56.1789 187.427 56.2097 187.622 56.284C187.622 56.3844 187.648 56.4798 187.663 56.5752C187.502 56.515 187.332 56.4861 187.161 56.4898L187.457 57.0421C187.632 57.036 187.806 57.0758 187.961 57.1578C188.116 57.2397 188.247 57.3607 188.34 57.5089C188.383 57.5675 188.41 57.6363 188.417 57.7084C188.425 57.7805 188.414 57.8534 188.384 57.9196C188.354 57.9859 188.308 58.0431 188.249 58.0856C188.19 58.1281 188.121 58.1543 188.049 58.1615ZM187.246 57.017L186.985 56.515C186.819 56.5752 186.794 56.6856 186.859 56.8061C186.902 56.8703 186.959 56.9232 187.026 56.96C187.094 56.9967 187.169 57.0163 187.246 57.017ZM188.059 57.5792C188.014 57.5166 187.954 57.4654 187.885 57.4297C187.816 57.394 187.74 57.3747 187.663 57.3734L187.919 57.8754C188.064 57.8051 188.094 57.6997 188.034 57.5792H188.059Z" fill="black"/>
</g>
<path d="M174.194 91.625C159.863 119.262 140.855 144.209 118.01 165.359L82.9153 138.612C105.776 117.467 124.798 92.5199 139.139 64.8784L174.194 91.625Z" fill="#31B96D"/>
<path opacity="0.2" d="M174.194 91.625C173.016 93.9041 171.801 96.1631 170.549 98.402C156.695 123.364 138.96 145.965 118.01 165.359L82.9153 138.612C105.776 117.467 124.798 92.5199 139.139 64.8784L174.194 91.625Z" fill="white"/>
<path opacity="0.2" d="M144.626 72.022C144.292 72.698 143.81 73.29 143.215 73.754C142.621 74.218 141.929 74.5421 141.192 74.7023C140.455 74.8624 139.692 74.8544 138.958 74.6789C138.225 74.5034 137.54 74.165 136.956 73.6886C124.513 95.9524 108.973 116.338 90.8018 134.235C91.4197 134.669 91.9311 135.237 92.2974 135.898C92.6637 136.558 92.8754 137.293 92.9165 138.047C92.9576 138.801 92.827 139.554 92.5346 140.251C92.2422 140.947 91.7956 141.567 91.2285 142.066L113.101 158.737C114.33 157.617 115.906 156.952 117.566 156.851C119.227 156.751 120.871 157.221 122.227 158.185C140.4 140.289 155.94 119.904 168.381 97.639C165.745 95.631 164.937 91.6452 166.498 88.6934L166.523 88.6482L144.646 71.9768L144.626 72.022ZM140.61 124.998C136.479 130.405 128.522 131.273 123.136 127.167C117.749 123.06 116.946 115.52 121.082 110.099C125.219 104.677 132.714 103.472 138.11 107.589C143.507 111.705 144.772 119.592 140.63 124.998H140.61Z" fill="black"/>
<g opacity="0.2">
<path d="M136.855 120.48L138.306 121.584L137.493 122.649L136.042 121.539C134.993 122.754 133.622 123.658 132.528 123.878L131.674 122.307C132.825 121.996 133.862 121.36 134.661 120.475L132.071 118.502C130.625 119.677 128.954 120.851 127.156 119.476C125.836 118.472 125.44 116.65 126.795 114.481L125.334 113.367C125.605 113.015 125.876 112.659 126.142 112.302L127.578 113.397C128.323 112.496 129.276 111.792 130.354 111.344L131.263 112.88C130.4 113.243 129.622 113.781 128.979 114.461L131.589 116.469C133.035 115.289 134.661 114.044 136.459 115.415C137.774 116.404 138.195 118.261 136.855 120.48ZM130.52 117.312L128.216 115.555C127.653 116.584 127.814 117.327 128.386 117.759C128.959 118.191 129.712 117.895 130.52 117.312ZM135.339 117.167C134.707 116.665 133.979 117.031 133.165 117.669L135.455 119.416C136.042 118.331 135.886 117.593 135.329 117.167H135.339Z" fill="black"/>
</g>
<path opacity="0.2" d="M170.564 98.3918C156.706 123.358 138.966 145.963 118.01 165.359C118.01 165.359 103.141 142.673 96.9712 138.456C96.9712 138.456 144.872 120.681 170.564 98.3918Z" fill="black"/>
<path d="M207.707 128.547C184.362 149.147 157.625 165.549 128.683 177.025L105.591 139.415C134.532 127.94 161.267 111.538 184.61 90.9373C192.314 103.477 200.013 116.014 207.707 128.547Z" fill="#31B96D"/>
<path opacity="0.3" d="M207.707 128.547C184.362 149.147 157.625 165.549 128.683 177.025L118.708 160.77C114.357 153.659 109.992 146.542 105.611 139.42C134.552 127.945 161.288 111.543 184.631 90.9421C192.321 103.479 200.013 116.014 207.707 128.547Z" fill="white"/>
<path opacity="0.2" d="M187.191 99.5866C186.639 100.102 185.977 100.485 185.256 100.708C184.534 100.93 183.771 100.986 183.025 100.871C182.279 100.756 181.569 100.473 180.947 100.044C180.326 99.6142 179.811 99.0494 179.44 98.3918C159.798 114.663 137.948 128.066 114.541 138.2C114.961 138.828 115.233 139.543 115.337 140.291C115.44 141.039 115.373 141.8 115.139 142.518C114.905 143.236 114.51 143.892 113.986 144.435C113.462 144.979 112.821 145.396 112.112 145.655L126.504 169.078C128.055 168.478 129.765 168.426 131.349 168.932C132.934 169.438 134.298 170.471 135.214 171.86C158.622 161.729 180.473 148.326 200.112 132.051C198.375 129.23 199.063 125.219 201.583 123.015L201.623 122.98L187.246 99.5515L187.191 99.5866ZM164.35 147.548C158.542 151.102 150.796 149.054 147.282 143.266C143.768 137.478 145.715 130.168 151.524 126.619C157.332 123.07 164.761 124.611 168.31 130.419C171.86 136.228 170.178 144.004 164.35 147.548Z" fill="black"/>
<g opacity="0.2">
<path d="M162.462 141.96L163.416 143.517L162.271 144.214C161.96 143.712 161.644 143.21 161.328 142.678C159.912 143.426 158.316 143.778 157.196 143.587C157.121 142.995 157.046 142.402 156.965 141.81C158.15 141.934 159.346 141.714 160.409 141.177C159.843 140.254 159.278 139.33 158.712 138.406C156.935 138.979 154.957 139.466 153.773 137.538C152.904 136.122 153.19 134.28 155.238 132.749L154.28 131.183L155.419 130.48L156.363 132.021C157.382 131.451 158.524 131.137 159.691 131.107C159.792 131.695 159.887 132.282 159.987 132.864C159.051 132.896 158.13 133.118 157.282 133.517L158.998 136.318C160.775 135.741 162.738 135.168 163.918 137.091C164.786 138.507 164.505 140.389 162.462 141.96ZM157.683 136.73C157.178 135.906 156.676 135.083 156.177 134.26C155.279 135.018 155.173 135.766 155.54 136.378C155.906 136.991 156.729 136.986 157.683 136.73ZM162.226 138.336C161.81 137.653 161.006 137.719 160.027 137.995L161.533 140.449C162.457 139.671 162.593 138.928 162.226 138.336Z" fill="black"/>
</g>
<path opacity="0.2" d="M207.707 128.547C184.362 149.147 157.625 165.549 128.683 177.025L118.708 160.771L116.966 135.585C116.966 135.585 172.337 139.581 207.707 128.547Z" fill="black"/>
<path d="M214.404 177.291C184.1 184.431 152.788 186.27 121.855 182.728C120.999 168.046 120.139 153.363 119.275 138.677C150.214 142.228 181.534 140.388 211.844 133.241C212.691 147.926 213.544 162.609 214.404 177.291Z" fill="#31B96D"/>
<path opacity="0.4" d="M214.404 177.291C184.1 184.431 152.788 186.27 121.855 182.728C120.999 168.046 120.139 153.363 119.275 138.677C150.214 142.228 181.534 140.388 211.844 133.241C212.691 147.926 213.544 162.609 214.404 177.291Z" fill="white"/>
<path opacity="0.2" d="M209.997 142.066C209.266 142.252 208.503 142.272 207.764 142.123C207.025 141.974 206.328 141.661 205.727 141.206C205.126 140.751 204.634 140.167 204.29 139.496C203.945 138.825 203.756 138.086 203.737 137.332C178.74 142.402 153.151 143.898 127.734 141.775C127.807 142.526 127.709 143.285 127.447 143.993C127.185 144.701 126.765 145.34 126.22 145.863C125.675 146.385 125.018 146.777 124.3 147.009C123.581 147.241 122.819 147.307 122.071 147.201C122.61 156.354 123.146 165.508 123.678 174.661C125.329 174.862 126.862 175.623 128.02 176.816C129.178 178.01 129.892 179.565 130.043 181.222C155.46 183.345 181.05 181.849 206.046 176.779C205.85 173.471 208.35 170.253 211.608 169.52H211.658L210.047 142.066H209.997ZM167.216 173.566C160.419 173.953 154.576 168.486 154.164 161.724C153.753 154.962 158.968 149.44 165.765 149.054C172.562 148.667 178.371 153.572 178.767 160.334C179.164 167.096 174.008 173.19 167.216 173.566Z" fill="black"/>
<g opacity="0.2">
<path d="M168.17 167.748L168.275 169.566L166.94 169.646L166.835 167.844C165.391 167.884 163.968 167.483 162.758 166.694C162.974 166.137 163.185 165.58 163.396 165.022C164.383 165.689 165.539 166.06 166.729 166.092C166.669 165.007 166.605 163.925 166.538 162.844C164.706 162.507 162.728 162.005 162.598 159.746C162.502 158.09 163.627 156.604 166.152 156.232L166.046 154.4L167.382 154.32L167.487 156.122C168.655 156.095 169.811 156.359 170.851 156.89L170.278 158.577C169.439 158.161 168.523 157.922 167.588 157.874L167.783 161.157C169.616 161.483 171.619 161.905 171.754 164.169C171.87 165.801 170.735 167.332 168.17 167.748ZM166.428 160.876C166.368 159.915 166.311 158.953 166.257 157.989C165.108 158.23 164.656 158.838 164.696 159.556C164.736 160.274 165.484 160.64 166.448 160.876H166.428ZM169.676 164.44C169.631 163.647 168.893 163.321 167.899 163.105L168.065 165.981C169.264 165.725 169.736 165.158 169.676 164.44Z" fill="black"/>
</g>
<path d="M142.287 177.337C142.417 178.839 142.573 180.367 142.754 181.92H37.1831C40.4863 154.014 37.1831 141.916 37.1831 141.916C72.4637 139.26 142.754 141.916 142.754 141.916C142.754 141.916 140.63 155.359 142.061 174.611C142.128 175.504 142.203 176.413 142.287 177.337Z" fill="#31B96D"/>
<path opacity="0.2" d="M142.754 141.916C138.13 144.074 115.515 144.38 102.503 143.572C89.4915 142.764 72.4637 145.229 72.4637 145.229C62.6044 141.825 37.1831 141.916 37.1831 141.916C72.4637 139.26 142.754 141.916 142.754 141.916Z" fill="white"/>
<path opacity="0.2" d="M37.1831 181.92C40.4863 154.014 37.1831 141.916 37.1831 141.916C37.1831 141.916 58.1115 141.459 72.4637 145.229C72.4637 145.229 72.9657 149.486 72.4637 151.674C72.4637 151.674 89.7274 148.873 105.094 149.245C105.094 149.245 81.3089 151.981 72.4637 154.014C72.4637 154.014 58.237 151.795 49.2361 151.674C49.2361 151.674 67.9507 154.109 72.4637 155.565C72.4637 155.565 77.815 154.591 80.6161 154.591C80.6161 154.591 73.9145 155.811 72.4637 156.9V164.611C72.4637 164.611 57.5241 164.907 50.0293 163.838C53.5885 164.395 68.1013 166.629 72.4637 166.629C72.4637 166.629 88.9493 166.022 98.5225 166.629C98.5225 166.629 76.7106 167.884 72.4637 168.898H53.7391L72.4637 170.469V172.031H80.4957L72.4637 173.416C72.4637 173.416 49.2361 171.94 42.5545 173.416C42.5545 173.416 69.9687 174.661 72.4335 175.63L72.4637 177.939C72.4637 177.939 103.206 173.878 130.394 177.372C130.394 177.372 90.6913 175.796 72.4637 180.213C72.4637 180.213 129.496 178.973 142.744 181.92H37.1831Z" fill="black"/>
<path d="M37.8005 145.229L35.0144 146.203C35.0144 146.203 51.7963 146.78 62.6244 148.437C62.6144 148.437 45.9329 145.47 37.8005 145.229Z" fill="#31B96D"/>
<path opacity="0.2" d="M74.9084 148.437L79.1554 149.245C79.1554 149.245 98.9291 147.096 122.302 146.835C122.302 146.835 88.5428 145.199 74.9084 148.437Z" fill="white"/>
<path opacity="0.2" d="M88.3066 152.98C88.3066 152.98 100.164 149.747 110.56 149.907C120.957 150.068 140.746 148.437 140.746 148.437L141.524 149.907C141.524 149.907 126.007 150.816 113.201 150.711C104.852 150.726 96.5209 151.486 88.3066 152.98Z" fill="white"/>
<path opacity="0.2" d="M76.5398 157.814C76.5398 157.814 90.6761 154.802 104.536 155.078C118.397 155.354 135.851 156.438 135.851 156.438C135.851 156.438 97.9702 156.438 88.3067 158.446L76.5398 157.814Z" fill="white"/>
<path d="M100.992 153.436C100.992 153.436 113.166 152.432 123.673 152.98C134.179 153.527 145.213 154.019 145.213 154.019L141.524 155.063C141.524 155.063 116.228 152.528 100.992 153.436Z" fill="#31B96D"/>
<path opacity="0.2" d="M100.992 153.436C100.992 153.436 113.166 152.432 123.673 152.98C134.179 153.527 145.213 154.019 145.213 154.019L141.524 155.063C141.524 155.063 116.228 152.528 100.992 153.436Z" fill="black"/>
<path opacity="0.2" d="M76.9966 160.369C76.9966 160.369 98.0806 160.108 108.236 159.601C118.392 159.094 132.011 161.91 132.011 161.91C132.011 161.91 115.209 161.554 110.008 162.377L76.9966 160.369Z" fill="black"/>
<path opacity="0.2" d="M74.9084 163.562L88.3068 162.377L116.851 163.562L87.9404 164.746L74.9084 163.562Z" fill="white"/>
<path opacity="0.2" d="M84.9282 169.852C84.9282 169.852 104.411 168.034 112.001 167.939C119.591 167.844 140.018 166.478 140.018 166.478L137.749 169.49C137.749 169.49 99.3406 168.672 84.9282 169.852Z" fill="white"/>
<path d="M134.33 159.601L141.524 160.279L143.482 159.601C140.438 159.316 137.374 159.316 134.33 159.601Z" fill="#31B96D"/>
<path d="M142.432 144.416L145.213 144.862L142.226 146.424L124.656 146.052C124.656 146.052 137.829 145.876 142.432 144.416Z" fill="#31B96D"/>
<path opacity="0.2" d="M134.33 159.601L141.524 160.279L143.482 159.601C140.438 159.316 137.374 159.316 134.33 159.601Z" fill="white"/>
<path opacity="0.2" d="M142.432 144.416L145.213 144.862L142.226 146.424L124.656 146.052C124.656 146.052 137.829 145.876 142.432 144.416Z" fill="black"/>
<path opacity="0.2" d="M142.287 177.337C137.568 177.03 104.501 172.874 104.501 172.874C106.705 172.618 135.57 174.325 142.061 174.611C142.128 175.504 142.203 176.413 142.287 177.337Z" fill="black"/>
<path d="M92.4985 172.306C92.4985 172.306 123.417 172.226 132.262 172.864C141.107 173.501 141.9 172.306 141.9 172.306L146.308 174.43C146.308 174.43 146.534 176.538 134.933 175.067C123.331 173.597 92.4985 172.306 92.4985 172.306Z" fill="#31B96D"/>
<path d="M67.2377 156.76C67.2377 156.76 49.1305 153.888 38.5735 154.621C40.1602 154.982 41.6383 155.715 42.8857 156.76H67.2377Z" fill="#31B96D"/>
<path d="M38.5534 164.611C38.9651 164.566 52.1074 166.298 57.1274 166.478L36.696 167.302L38.5534 164.611Z" fill="#31B96D"/>
<path d="M37.8105 175.966L57.6596 176.669L35.0144 178.346L37.8105 175.966Z" fill="#31B96D"/>
<path d="M73.9747 140.56C73.9747 140.56 102.167 145.379 118.517 126.087L149.32 133.994C149.32 133.994 143.652 145.751 101.083 144.19C58.5131 142.628 73.9747 140.56 73.9747 140.56Z" fill="#31B96D"/>
<path opacity="0.5" d="M73.9747 140.56C73.9747 140.56 102.167 145.379 118.517 126.087L149.32 133.994C149.32 133.994 143.652 145.751 101.083 144.19C58.5131 142.628 73.9747 140.56 73.9747 140.56Z" fill="white"/>
<path opacity="0.2" d="M90.0737 141.599C90.0737 141.599 107.307 140.691 117.051 129.667C117.946 129.944 118.902 129.945 119.798 129.671C120.693 129.397 121.485 128.86 122.071 128.131L144.556 134.089C144.556 134.089 142.136 134.938 142.985 137.739C142.964 137.739 113.452 149.697 90.0737 141.599Z" fill="black"/>
<path d="M115.796 85.6864L116.323 82.8903C116.323 82.8903 115.234 81.8561 115.359 80.8823C115.485 79.9084 120.334 78.3723 121.193 78.2869C122.051 78.2016 121.725 81.7156 121.464 82.3531C121.203 82.9907 118.291 83.7587 118.291 83.7587L117.925 86.7055L115.796 85.6864Z" fill="#EBB376"/>
<path d="M59.8885 99.4313L57.9658 97.3329C57.9658 97.3329 58.3423 95.8821 57.7299 95.1392C57.1174 94.3962 52.1727 95.6161 51.4097 96.0127C50.6467 96.4092 52.7651 99.2054 53.3273 99.607C53.8896 100.009 56.761 99.105 56.761 99.105L58.6285 101.419L59.8885 99.4313Z" fill="#EBB376"/>
<path d="M98.1257 94.9233C103.532 94.6221 108.432 95.7516 110.947 94.9233C113.462 94.095 115.902 83.6333 115.902 83.6333L118.547 84.5269C118.547 84.5269 117.543 95.4152 113.196 98.3319C108.848 101.248 98.7733 101.223 98.7733 101.223L98.1257 94.9233Z" fill="#31B96D"/>
<path opacity="0.7" d="M118.547 84.5269C118.547 84.5269 117.543 95.4152 113.196 98.3319C110.686 99.9885 106.384 100.696 103.116 101.003C100.641 101.228 98.7733 101.223 98.7733 101.223L98.4721 98.2817L98.1257 94.9233C103.532 94.6221 108.432 95.7516 110.947 94.9233C113.462 94.095 115.902 83.6333 115.902 83.6333L118.547 84.5269Z" fill="white"/>
<path opacity="0.2" d="M103.116 101.003C100.641 101.228 98.7734 101.223 98.7734 101.223L98.4722 98.2817C100.155 98.9357 101.723 99.8542 103.116 101.003Z" fill="black"/>
<path d="M132.689 179.49L136.187 178.531L135.56 169.987L132.066 170.951L132.689 179.49Z" fill="#B97964"/>
<path d="M136.403 178.064L132.337 178.346C132.269 178.348 132.204 178.377 132.157 178.427C132.11 178.477 132.085 178.543 132.086 178.612L132.111 181.839C132.123 182.008 132.201 182.166 132.327 182.277C132.454 182.389 132.62 182.446 132.789 182.437C134.205 182.316 134.877 182.186 136.664 182.05C138.259 181.996 139.848 181.828 141.418 181.548C142.924 181.202 142.523 179.746 141.86 179.761C140.148 179.669 138.49 179.134 137.046 178.21C136.853 178.093 136.628 178.042 136.403 178.064Z" fill="#263238"/>
<path d="M137.729 178.592C137.403 178.607 137.076 178.587 136.755 178.531C136.738 178.529 136.723 178.522 136.711 178.512C136.698 178.501 136.689 178.487 136.684 178.471C136.682 178.455 136.683 178.439 136.687 178.423C136.692 178.408 136.699 178.393 136.71 178.381C136.82 178.29 137.799 177.522 138.256 177.663C138.307 177.679 138.354 177.709 138.391 177.748C138.428 177.788 138.454 177.836 138.467 177.889C138.502 177.967 138.514 178.053 138.501 178.138C138.489 178.222 138.452 178.301 138.396 178.366C138.208 178.519 137.971 178.599 137.729 178.592ZM138.206 177.839C137.965 177.763 137.382 178.11 136.981 178.406C137.638 178.486 138.11 178.436 138.271 178.255C138.303 178.212 138.324 178.161 138.331 178.107C138.338 178.054 138.331 177.999 138.311 177.949C138.303 177.924 138.289 177.901 138.271 177.882C138.253 177.863 138.23 177.848 138.206 177.839Z" fill="#263238"/>
<path d="M136.77 178.531C136.764 178.534 136.758 178.536 136.752 178.536C136.746 178.536 136.74 178.534 136.735 178.531C136.723 178.525 136.712 178.517 136.703 178.506C136.695 178.496 136.688 178.484 136.684 178.471C136.684 178.436 136.529 177.392 136.865 177.01C136.91 176.963 136.964 176.925 137.025 176.901C137.086 176.877 137.151 176.866 137.217 176.87C137.289 176.868 137.36 176.889 137.418 176.931C137.477 176.972 137.521 177.032 137.543 177.101C137.648 177.492 137.161 178.286 136.82 178.521C136.813 178.527 136.805 178.53 136.796 178.532C136.787 178.534 136.778 178.534 136.77 178.531ZM137.171 177.056C137.137 177.057 137.104 177.066 137.074 177.082C137.043 177.097 137.017 177.119 136.996 177.146C136.819 177.505 136.764 177.912 136.84 178.306C137.153 178.005 137.345 177.599 137.377 177.166C137.377 177.116 137.332 177.061 137.211 177.056H137.171Z" fill="#263238"/>
<path opacity="0.2" d="M132.066 170.951L135.565 169.992L135.921 174.877L132.402 175.66L132.066 170.951Z" fill="black"/>
<path d="M128.11 179.365L124.802 180.876L123.964 177.322L122.834 172.543L126.127 171.031L127.262 175.806L128.11 179.365Z" fill="#B97964"/>
<path opacity="0.2" d="M127.262 175.806L123.964 177.322L122.834 172.543L126.127 171.031L127.262 175.806Z" fill="black"/>
<path d="M128.246 178.873L124.28 179.801C124.214 179.814 124.155 179.852 124.116 179.907C124.078 179.963 124.062 180.031 124.074 180.098L124.616 183.285C124.633 183.368 124.665 183.447 124.712 183.518C124.759 183.588 124.82 183.648 124.89 183.695C124.961 183.742 125.04 183.774 125.123 183.79C125.206 183.806 125.292 183.805 125.374 183.787C126.755 183.441 127.382 183.205 129.139 182.783C130.706 182.486 132.25 182.077 133.758 181.558C135.168 180.981 134.561 179.606 133.913 179.726C132.377 180.002 130.078 179.5 128.893 178.953C128.692 178.855 128.465 178.827 128.246 178.873Z" fill="#263238"/>
<path d="M129.641 179.184C129.321 179.249 128.994 179.279 128.668 179.274C128.651 179.277 128.634 179.274 128.62 179.265C128.605 179.257 128.594 179.244 128.587 179.229C128.58 179.215 128.576 179.2 128.576 179.184C128.576 179.168 128.58 179.153 128.587 179.139C128.683 179.033 129.521 178.135 129.998 178.18C130.051 178.189 130.1 178.211 130.143 178.245C130.185 178.278 130.218 178.321 130.239 178.371C130.288 178.445 130.315 178.532 130.315 178.622C130.315 178.711 130.288 178.798 130.239 178.873C130.081 179.042 129.87 179.152 129.641 179.184ZM129.993 178.366C129.737 178.325 129.22 178.762 128.868 179.119C129.531 179.094 129.993 178.968 130.118 178.767C130.147 178.72 130.162 178.666 130.162 178.612C130.162 178.557 130.147 178.503 130.118 178.456C130.109 178.432 130.094 178.41 130.073 178.395C130.053 178.379 130.029 178.369 130.003 178.366H129.993Z" fill="#263238"/>
<path d="M128.683 179.274C128.678 179.277 128.673 179.278 128.668 179.278C128.662 179.278 128.657 179.277 128.652 179.274C128.639 179.27 128.627 179.263 128.616 179.253C128.606 179.244 128.598 179.232 128.592 179.219C128.592 179.189 128.261 178.175 128.537 177.748C128.573 177.694 128.62 177.648 128.676 177.614C128.731 177.581 128.794 177.559 128.858 177.552C128.93 177.538 129.005 177.547 129.07 177.58C129.136 177.613 129.189 177.667 129.22 177.733C129.385 178.1 129.034 178.963 128.718 179.239C128.716 179.248 128.712 179.256 128.705 179.262C128.699 179.268 128.691 179.273 128.683 179.274ZM128.843 177.768C128.777 177.785 128.72 177.826 128.683 177.884C128.568 178.269 128.578 178.68 128.713 179.058C128.975 178.712 129.101 178.282 129.069 177.849C129.069 177.798 129.004 177.748 128.883 177.763L128.843 177.768Z" fill="#263238"/>
<path d="M103.598 130.846L102.528 119.039L82.8148 119.501C82.8148 119.501 80.4805 135.952 82.1772 138.974C85.1892 144.37 105.078 141.308 109.727 141.765C111.625 142.769 121.775 176.438 121.775 176.438L127.463 174.144C127.463 174.144 121.348 145.736 119.933 140.384C118.02 132.945 110.129 133.075 103.598 130.846Z" fill="#263238"/>
<path d="M136.268 173.562L131.248 174.023C131.248 174.023 125.098 142.704 124.621 142.568C123.768 142.322 121.273 142.041 119.933 141.69C110.626 139.27 87.7043 134.817 87.7043 134.817L96.158 126.675C96.158 126.675 134.481 131.273 135.314 140.269C135.741 144.576 136.268 173.562 136.268 173.562Z" fill="#263238"/>
<path opacity="0.2" d="M123.271 142.593C122.413 142.347 121.263 142.046 119.933 141.695C120.304 141.89 119.23 137.016 118.156 135.756C116.022 133.246 107.458 131.881 104.391 131.389C101.821 130.977 93.2063 130.219 93.2063 130.219C93.2063 130.219 108.417 128.904 119.878 132.051C125.545 133.607 124.536 139.139 123.271 142.593Z" fill="black"/>
<path d="M80.1843 97.7898C80.1843 97.7898 87.4583 93.9294 98.1258 94.9234C98.1258 94.9234 101.826 104.331 102.528 119.019L82.6943 120.395C82.6943 120.395 83.0507 107.805 80.1843 97.7898Z" fill="#31B96D"/>
<path opacity="0.7" d="M82.6943 120.415C82.7451 116.987 82.6178 113.559 82.3128 110.144C82.1371 108.136 81.8861 106.023 81.5247 103.869C81.1926 101.819 80.7451 99.7894 80.1843 97.7898C80.1843 97.7898 87.4583 93.9294 98.1258 94.9234C98.1258 94.9234 101.826 104.331 102.528 119.019L82.6943 120.415Z" fill="white"/>
<path opacity="0.2" d="M82.3279 110.144C82.1522 108.136 81.9012 106.023 81.5398 103.869C81.892 103.511 82.3164 103.232 82.7848 103.051L82.8099 102.83C82.7948 103.071 83.8339 106.781 82.3279 110.144Z" fill="black"/>
<path d="M85.6812 96.4244C87.4984 98.0759 91.9461 97.4635 91.9461 97.4635C91.9461 97.4635 94.7222 96.7055 94.1399 95.837C92.5033 95.5659 91.7152 94.8029 91.3839 93.829C91.2081 93.2214 91.1518 92.5855 91.2182 91.9565C91.2182 91.6152 91.2985 91.2638 91.3588 90.9174L85.8418 86.8462C86.5797 89.5319 87.4633 94.4766 85.6812 96.4244Z" fill="#EBB376"/>
<path opacity="0.2" d="M87.127 89.4314C87.3478 92.7295 90.0586 93.6432 91.3839 93.8289C91.2081 93.2214 91.1519 92.5854 91.2183 91.9565L87.127 89.4314Z" fill="black"/>
<path d="M90.616 75.5309C92.6591 76.0831 94.3609 80.7969 92.8298 83.9143C91.2987 87.0317 86.6853 78.312 86.6853 78.312C86.6853 78.312 89.2957 75.1795 90.616 75.5309Z" fill="#263238"/>
<path d="M94.8779 86.3441C94.8879 86.5347 94.8879 86.7257 94.8779 86.9163C94.8427 88.2768 94.2939 89.5735 93.3418 90.5458C92.4908 91.4322 91.3398 91.9692 90.1139 92.0518C89.2418 92.095 88.3743 91.9007 87.6039 91.4896C85.1642 90.2496 84.5066 88.1011 83.0859 84.5569C82.7321 83.7323 82.5973 82.8302 82.6945 81.9381C82.7917 81.046 83.1176 80.1941 83.6408 79.4649C84.1639 78.7358 84.8664 78.1541 85.6804 77.7762C86.4943 77.3984 87.3921 77.2371 88.2866 77.3081C92.3026 77.6042 94.5667 82.8301 94.8779 86.3441Z" fill="#EBB376"/>
<path d="M88.9141 83.7287C88.9894 84.0249 89.2404 84.2307 89.4161 84.1454C89.5918 84.0601 89.6872 83.789 89.5918 83.4978C89.4964 83.2067 89.2554 82.9958 89.0898 83.0812C88.9241 83.1665 88.8187 83.4275 88.9141 83.7287Z" fill="#263238"/>
<path d="M92.2423 82.6344C92.3176 82.9305 92.5736 83.1113 92.7443 83.051C92.915 82.9908 93.0154 82.6946 92.92 82.3984C92.8246 82.1022 92.5887 81.9215 92.418 81.9818C92.2473 82.042 92.1519 82.3532 92.2423 82.6344Z" fill="#263238"/>
<path d="M91.2334 83.1262C91.8807 83.9109 92.6323 84.6034 93.4673 85.1844C93.3125 85.3959 93.1131 85.5707 92.8832 85.6965C92.6533 85.8223 92.3985 85.8959 92.137 85.9123L91.2334 83.1262Z" fill="#D58745"/>
<path d="M93.0103 80.8222C92.986 80.8455 92.9565 80.8628 92.9242 80.8724C92.8919 80.882 92.8577 80.8837 92.8246 80.8774C92.6049 80.8173 92.3742 80.8097 92.151 80.855C91.9278 80.9003 91.7183 80.9974 91.5395 81.1384C91.5049 81.1717 91.4584 81.1899 91.4104 81.1889C91.3624 81.188 91.3167 81.168 91.2835 81.1334C91.2502 81.0988 91.232 81.0524 91.2329 81.0043C91.2339 80.9563 91.2539 80.9107 91.2885 80.8774C91.5115 80.6943 91.7748 80.5669 92.0568 80.5058C92.3387 80.4447 92.6312 80.4516 92.9099 80.526C92.9334 80.5307 92.9557 80.5401 92.9756 80.5536C92.9954 80.5671 93.0123 80.5844 93.0254 80.6045C93.0385 80.6246 93.0475 80.647 93.0518 80.6706C93.0561 80.6942 93.0556 80.7184 93.0505 80.7418C93.0402 80.77 93.0267 80.797 93.0103 80.8222Z" fill="#263238"/>
<path d="M87.8148 82.6142C87.7809 82.6269 87.7434 82.6269 87.7094 82.6142C87.6683 82.5901 87.6384 82.5507 87.6262 82.5047C87.6139 82.4586 87.6204 82.4096 87.6442 82.3682C87.7906 82.1183 87.9945 81.9069 88.2389 81.7515C88.4834 81.5961 88.7613 81.5012 89.0498 81.4747C89.0735 81.474 89.0971 81.478 89.1193 81.4865C89.1415 81.495 89.1618 81.5077 89.179 81.524C89.1963 81.5404 89.2102 81.5599 89.2199 81.5816C89.2295 81.6033 89.2349 81.6266 89.2355 81.6504C89.2356 81.6979 89.2174 81.7437 89.1847 81.7783C89.152 81.8128 89.1073 81.8336 89.0598 81.8361C88.8326 81.8635 88.6148 81.9436 88.424 82.07C88.2331 82.1963 88.0744 82.3655 87.9604 82.564C87.941 82.582 87.918 82.5958 87.8929 82.6045C87.8679 82.6131 87.8413 82.6164 87.8148 82.6142Z" fill="#263238"/>
<path d="M84.2607 79.1355L85.0488 80.6415C84.8354 80.8725 84.7168 81.1754 84.7168 81.4899C84.7168 81.8044 84.8354 82.1073 85.0488 82.3383C86.0528 83.4627 86.093 85.792 85.3902 86.9968C85.3902 86.9968 85.1442 86.4396 84.7125 86.7559C84.2808 87.0721 85.5558 89.9988 87.0367 91.058C87.0367 91.058 85.1241 90.3201 83.1261 87.5038C81.2788 84.9035 80.2648 82.529 80.4304 81.1837L84.2607 79.1355Z" fill="#263238"/>
<path d="M82.4886 88.0057C83.1567 88.6928 84.0704 89.0865 85.0287 89.1001C86.3038 89.1001 86.605 87.8902 85.9725 86.8611C85.4052 85.9525 84.0549 84.823 82.9153 85.32C81.7758 85.817 81.6754 87.1523 82.4886 88.0057Z" fill="#EBB376"/>
<path d="M92.5285 87.1724C92.2973 87.6782 92.1026 88.1999 91.9462 88.7336L91.655 88.6985C90.3398 88.5228 89.7826 88.0057 89.5717 87.4837C89.4738 87.228 89.4377 86.9528 89.4663 86.6805C89.4765 86.524 89.5104 86.37 89.5667 86.2236C90.3301 86.6953 91.1862 86.9967 92.0767 87.1072C92.3679 87.1574 92.5285 87.1724 92.5285 87.1724Z" fill="#263238"/>
<path d="M92.0817 87.1072L91.896 87.564C90.656 87.3933 89.8026 87.1072 89.4663 86.6805C89.4765 86.524 89.5103 86.37 89.5667 86.2236C90.3315 86.696 91.1895 86.9974 92.0817 87.1072Z" fill="white"/>
<path d="M91.6551 88.6985C90.3398 88.5228 89.7826 88.0057 89.5718 87.4836C90.0725 87.5669 90.555 87.7368 90.9975 87.9856C91.2851 88.1496 91.5148 88.3986 91.6551 88.6985Z" fill="#DE5753"/>
<path d="M87.6191 79.3964C87.6191 79.3964 87.2677 76.9969 88.7837 77.4637C90.2997 77.9306 90.4052 77.0169 89.9534 75.1646C89.5016 73.3122 85.1542 72.6546 82.6944 75.6917C80.2346 78.7288 79.3762 81.2739 80.566 82.6193C81.7557 83.9646 86.2888 79.9938 86.2888 79.9938C86.4123 79.3155 86.7002 78.6778 87.1271 78.1364C87.1549 78.5976 87.327 79.0384 87.6191 79.3964Z" fill="#263238"/>
<path d="M89.9634 97.2727L92.368 99.3962C92.368 99.3962 93.6882 108.332 96.9311 112.237H98.9391L99.3357 110.852C96.3191 107.484 94.1535 103.442 93.0206 99.0648V96.2185L89.9634 97.2727Z" fill="#263238"/>
<path d="M86.2936 94.4915L91.2333 96.3439L91.655 93.8289L94.2202 94.7576L94.8778 97.9352L91.3839 97.0718L89.652 99.391L84.6169 96.133L86.2936 94.4915Z" fill="#31B96D"/>
<path opacity="0.5" d="M86.2936 94.4915L91.2333 96.3439L91.655 93.8289L94.2202 94.7576L94.8778 97.9352L91.3839 97.0718L89.652 99.391L84.6169 96.133L86.2936 94.4915Z" fill="white"/>
<path d="M82.4133 120.084L102.759 118.151L102.805 120.621L82.4234 122.287L82.4133 120.084Z" fill="black"/>
<path d="M98.452 118.658C98.3602 118.575 98.2519 118.513 98.1343 118.475C98.0166 118.436 97.8922 118.424 97.7693 118.437L95.9671 118.623C95.7444 118.645 95.5383 118.751 95.3895 118.918C95.2408 119.085 95.1603 119.302 95.1639 119.526V120.681C95.1692 120.918 95.2683 121.144 95.4395 121.309C95.6107 121.473 95.8401 121.563 96.0776 121.559H96.1529L97.9551 121.369C98.1773 121.346 98.3829 121.24 98.5308 121.073C98.6788 120.905 98.7582 120.688 98.7532 120.465V119.315C98.7526 119.191 98.7254 119.068 98.6735 118.954C98.6215 118.841 98.546 118.74 98.452 118.658ZM97.9249 120.907L96.1278 121.098C96.0662 121.106 96.0035 121.101 95.9437 121.084C95.884 121.067 95.8287 121.037 95.7813 120.997C95.7339 120.956 95.6956 120.906 95.6688 120.85C95.642 120.794 95.6273 120.733 95.6258 120.671V119.521C95.6239 119.412 95.6631 119.306 95.7356 119.224C95.8081 119.142 95.9086 119.091 96.0173 119.08L97.8145 118.894H97.8547C97.9688 118.894 98.0784 118.938 98.16 119.018C98.2416 119.098 98.2888 119.206 98.2914 119.321V119.476H98.2211L97.7191 119.521C97.6789 119.525 97.6398 119.536 97.604 119.555C97.5683 119.574 97.5365 119.6 97.5107 119.631C97.4848 119.662 97.4653 119.697 97.4532 119.736C97.4412 119.774 97.4369 119.815 97.4405 119.855C97.4441 119.895 97.4556 119.934 97.4744 119.97C97.4931 120.006 97.5187 120.038 97.5497 120.064C97.5807 120.089 97.6165 120.109 97.655 120.121C97.6936 120.133 97.7341 120.137 97.7743 120.134L98.2763 120.084H98.3014V120.48C98.3011 120.585 98.2627 120.686 98.1934 120.764C98.1242 120.843 98.0288 120.893 97.9249 120.907Z" fill="white"/>
<path d="M80.1844 97.7898C76.7909 99.7978 71.8914 106.409 70.1695 106.274C68.4477 106.138 59.1607 97.8902 59.1607 97.8902L57.0422 100.184C57.0422 100.184 65.6214 110.43 69.6173 111.203C73.6133 111.976 82.4133 104.567 82.4133 104.567C82.911 103.29 82.911 101.873 82.4133 100.596C81.962 99.462 81.1868 98.486 80.1844 97.7898Z" fill="#31B96D"/>
<path opacity="0.7" d="M80.1844 97.7898C76.7909 99.7978 71.8914 106.409 70.1695 106.274C68.4477 106.138 59.1607 97.8902 59.1607 97.8902L57.0422 100.184C57.0422 100.184 65.6214 110.43 69.6173 111.203C73.6133 111.976 82.4133 104.567 82.4133 104.567C82.911 103.29 82.911 101.873 82.4133 100.596C81.962 99.462 81.1868 98.486 80.1844 97.7898Z" fill="white"/>
<path d="M111.248 144.456C111.248 144.456 43.8748 144.922 39.6931 135.46L69.6977 133.281C75.6523 135.779 81.7467 137.929 87.9504 139.722C94.878 141.745 103.091 143.662 111.248 144.456Z" fill="#31B96D"/>
<path opacity="0.2" d="M111.248 144.456C111.248 144.456 109.135 144.456 105.621 144.456C91.2082 143.452 74.3811 136.293 74.3811 136.293C68.3069 137.628 64.1303 135.234 64.1303 135.234L47.7551 136.173C47.8432 136.576 47.8394 136.994 47.7438 137.395C47.6482 137.797 47.4633 138.172 47.2029 138.492C55.6917 140.876 64.8431 142.327 72.3028 143.206C56.5451 142.026 41.5905 139.777 39.6729 135.475L69.6774 133.296C69.6774 133.296 90.6359 142.448 111.248 144.456Z" fill="white"/>
<path opacity="0.2" d="M111.248 144.456C111.248 144.456 43.8748 144.922 39.6931 135.46C39.6931 135.46 62.4588 145.294 87.9504 139.722C94.878 141.745 103.091 143.662 111.248 144.456Z" fill="black"/>
</svg>
